<?xml version="1.0" standalone="no"?>
<!DOCTYPE svg PUBLIC "-//W3C//DTD SVG 20010904//EN"
 "http://www.w3.org/TR/2001/REC-SVG-20010904/DTD/svg10.dtd">
<svg version="1.0" xmlns="http://www.w3.org/2000/svg"
 width="1075.000000pt" height="137.000000pt" viewBox="0 0 1075.000000 137.000000"
 preserveAspectRatio="xMidYMid meet">

<g transform="translate(0.000000,137.000000) scale(0.100000,-0.100000)"
fill="#000000" stroke="none">
<path d="M1056 949 c-18 -14 -26 -30 -26 -52 0 -43 7 -51 81 -100 68 -45 83
-72 54 -101 -34 -34 -98 -14 -120 37 l-14 32 0 -55 c-1 -32 3 -50 7 -42 7 10
18 10 56 0 40 -11 51 -10 74 3 74 41 64 111 -23 160 -67 38 -89 62 -80 88 15
49 96 34 120 -22 l14 -32 0 55 c1 37 -2 50 -8 41 -8 -12 -14 -13 -36 -3 -38
17 -69 15 -99 -9z"/>
<path d="M1622 836 c-29 -74 -60 -140 -68 -146 -26 -22 -63 -2 -109 62 l-45
62 29 12 c46 19 56 77 20 110 -17 15 -39 19 -113 21 -66 2 -85 0 -68 -7 22 -9
22 -14 21 -135 -1 -119 -3 -127 -23 -135 -15 -6 -2 -9 44 -9 49 0 59 3 43 9
-20 8 -23 16 -23 70 0 80 14 78 76 -10 l49 -70 84 0 c73 0 82 2 67 13 -17 12
-17 18 -7 50 12 36 13 37 65 37 47 0 54 -3 64 -25 16 -34 15 -62 0 -68 -7 -3
11 -6 40 -6 51 -1 52 -1 33 18 -10 10 -40 77 -66 150 -27 72 -51 131 -54 131
-3 0 -30 -61 -59 -134z m-212 84 c31 -31 25 -57 -17 -79 -12 -6 -31 -11 -42
-11 -19 0 -21 6 -21 55 0 54 0 55 30 55 17 0 39 -9 50 -20z m284 -77 c9 -26
16 -48 16 -50 0 -2 -20 -3 -44 -3 l-45 0 21 50 c11 28 24 50 28 50 5 0 15 -21
24 -47z"/>
<path d="M2235 842 c-27 -70 -60 -137 -72 -149 l-22 -23 46 0 c41 0 45 2 29
13 -17 12 -17 17 -5 50 13 36 14 37 64 37 46 0 53 -3 63 -25 16 -34 15 -62 0
-68 -7 -3 12 -6 42 -6 38 0 50 2 39 9 -18 10 -33 43 -85 188 -20 56 -40 102
-43 102 -3 0 -28 -57 -56 -128z m59 26 c32 -77 31 -78 -13 -78 -23 0 -41 3
-41 6 0 10 34 104 38 104 2 0 9 -15 16 -32z"/>
<path d="M1853 948 c9 -7 42 -71 73 -143 30 -71 59 -134 63 -138 7 -7 34 54
91 205 12 32 31 65 43 73 20 14 19 15 -28 15 -44 0 -47 -1 -30 -14 19 -13 18
-16 -14 -102 -47 -126 -46 -124 -68 -73 -67 153 -69 160 -48 175 17 13 13 14
-40 14 -49 0 -56 -2 -42 -12z"/>
<path d="M2458 945 l32 -14 0 -121 c0 -116 -1 -121 -22 -130 -18 -7 -11 -9 32
-9 43 0 50 2 33 9 -22 9 -23 15 -23 110 0 55 1 100 3 100 2 0 43 -50 92 -110
48 -61 91 -108 94 -105 3 3 6 61 8 128 1 67 2 126 2 130 1 4 11 12 24 17 17 7
9 9 -33 8 -30 0 -47 -2 -38 -5 24 -6 29 -33 26 -133 l-3 -85 -88 113 c-88 111
-89 112 -130 112 l-42 -1 33 -14z"/>
<path d="M2778 950 c21 -9 22 -14 22 -135 0 -121 -1 -126 -22 -135 -17 -6 -7
-9 42 -9 49 0 59 3 43 9 -22 9 -23 14 -23 135 0 121 1 126 23 135 16 6 6 9
-43 9 -49 0 -59 -3 -42 -9z"/>
</g>
</svg>
